<svg width="283" height="106" viewBox="0 0 283 106" fill="none" xmlns="http://www.w3.org/2000/svg">
<path d="M282.662 9.11835H1.55964V13.9894H282.662V9.11835Z" fill="white"/>
<path d="M281.102 48.9643H0V53.8353H281.102V48.9643Z" fill="white"/>
<path d="M282.69 89.2539H1.58768V94.1249H282.69V89.2539Z" fill="white"/>
<path d="M58.2863 1H51.1324V61.4439H58.2863V1Z" fill="white" stroke="#5E5E5E" stroke-width="0.5" stroke-miterlimit="10"/>
<path d="M56.6052 5.27629C56.6052 5.6497 56.4957 6.01473 56.2904 6.32521C56.0852 6.63568 55.7935 6.87767 55.4522 7.02057C55.1109 7.16347 54.7353 7.20085 54.373 7.12801C54.0106 7.05516 53.6778 6.87535 53.4166 6.61131C53.1554 6.34727 52.9775 6.01086 52.9054 5.64462C52.8333 5.27839 52.8703 4.89878 53.0117 4.55379C53.1531 4.20881 53.3925 3.91394 53.6996 3.70649C54.0068 3.49903 54.3679 3.38831 54.7374 3.38831C55.2328 3.38831 55.7078 3.58722 56.0581 3.94128C56.4084 4.29535 56.6052 4.77557 56.6052 5.27629Z" fill="#0E293E"/>
<path d="M58.2863 51.9095H51.1324V103.886H58.2863V51.9095Z" fill="white" stroke="#5E5E5E" stroke-width="0.5" stroke-miterlimit="10"/>
<path d="M136.923 1.35876H129.769V61.7932H136.923V1.35876Z" fill="white" stroke="#5E5E5E" stroke-width="0.5" stroke-miterlimit="10"/>
<path d="M135.242 5.635C135.242 6.00841 135.132 6.37343 134.927 6.68391C134.722 6.99439 134.43 7.23638 134.089 7.37927C133.747 7.52217 133.372 7.55956 133.009 7.48671C132.647 7.41386 132.314 7.23405 132.053 6.97001C131.792 6.70597 131.614 6.36956 131.542 6.00333C131.47 5.63709 131.507 5.25748 131.648 4.9125C131.79 4.56751 132.029 4.27265 132.336 4.06519C132.643 3.85774 133.004 3.74701 133.374 3.74701C133.869 3.74701 134.344 3.94592 134.695 4.29999C135.045 4.65405 135.242 5.13427 135.242 5.635Z" fill="#0E293E"/>
<path d="M136.923 52.2682H129.769V104.235H136.923V52.2682Z" fill="white" stroke="#5E5E5E" stroke-width="0.5" stroke-miterlimit="10"/>
<path d="M228.914 1.92511H221.751V62.3596H228.914V1.92511Z" fill="white" stroke="#5E5E5E" stroke-width="0.5" stroke-miterlimit="10"/>
<path d="M227.224 6.2108C227.224 6.58421 227.115 6.94923 226.909 7.25971C226.704 7.57018 226.412 7.81217 226.071 7.95507C225.73 8.09796 225.354 8.13535 224.992 8.0625C224.63 7.98966 224.297 7.80984 224.036 7.54581C223.774 7.28177 223.596 6.94536 223.524 6.57912C223.452 6.21289 223.489 5.83328 223.631 5.4883C223.772 5.14331 224.011 4.84845 224.319 4.641C224.626 4.43354 224.987 4.32281 225.356 4.32281C225.852 4.32281 226.327 4.52173 226.677 4.87579C227.027 5.22986 227.224 5.71007 227.224 6.2108Z" fill="#0E293E"/>
<path d="M228.914 52.8441H221.751V104.82H228.914V52.8441Z" fill="white" stroke="#5E5E5E" stroke-width="0.5" stroke-miterlimit="10"/>
<path d="M56.6893 55.7044C56.6893 56.0778 56.5798 56.4428 56.3745 56.7533C56.1693 57.0638 55.8776 57.3058 55.5363 57.4487C55.1949 57.5916 54.8194 57.6289 54.4571 57.5561C54.0947 57.4832 53.7619 57.3034 53.5007 57.0394C53.2395 56.7754 53.0616 56.439 52.9895 56.0727C52.9174 55.7065 52.9544 55.3269 53.0958 54.9819C53.2372 54.6369 53.4766 54.342 53.7837 54.1346C54.0909 53.9271 54.452 53.8164 54.8215 53.8164C55.3168 53.8164 55.7919 54.0153 56.1422 54.3694C56.4925 54.7235 56.6893 55.2037 56.6893 55.7044Z" fill="#0E293E"/>
<path d="M56.6893 100.421C56.6893 100.795 56.5798 101.16 56.3745 101.47C56.1693 101.781 55.8776 102.023 55.5363 102.166C55.1949 102.308 54.8194 102.346 54.4571 102.273C54.0947 102.2 53.7619 102.02 53.5007 101.756C53.2395 101.492 53.0616 101.156 52.9895 100.79C52.9174 100.423 52.9544 100.044 53.0958 99.6988C53.2372 99.3538 53.4766 99.059 53.7837 98.8515C54.0909 98.6441 54.452 98.5333 54.8215 98.5333C55.3168 98.5333 55.7919 98.7322 56.1422 99.0863C56.4925 99.4404 56.6893 99.9206 56.6893 100.421Z" fill="#0E293E"/>
<path d="M135.288 55.7044C135.288 56.0778 135.179 56.4428 134.974 56.7533C134.768 57.0638 134.477 57.3058 134.135 57.4487C133.794 57.5916 133.419 57.6289 133.056 57.5561C132.694 57.4832 132.361 57.3034 132.1 57.0394C131.839 56.7754 131.661 56.439 131.589 56.0727C131.517 55.7065 131.554 55.3269 131.695 54.9819C131.836 54.6369 132.076 54.342 132.383 54.1346C132.69 53.9271 133.051 53.8164 133.421 53.8164C133.916 53.8164 134.391 54.0153 134.741 54.3694C135.092 54.7235 135.288 55.2037 135.288 55.7044Z" fill="#0E293E"/>
<path d="M135.288 100.421C135.288 100.795 135.179 101.16 134.974 101.47C134.768 101.781 134.477 102.023 134.135 102.166C133.794 102.308 133.419 102.346 133.056 102.273C132.694 102.2 132.361 102.02 132.1 101.756C131.839 101.492 131.661 101.156 131.589 100.79C131.517 100.423 131.554 100.044 131.695 99.6988C131.836 99.3538 132.076 99.059 132.383 98.8515C132.69 98.6441 133.051 98.5333 133.421 98.5333C133.916 98.5333 134.391 98.7322 134.741 99.0863C135.092 99.4404 135.288 99.9206 135.288 100.421Z" fill="#0E293E"/>
<path d="M227.205 56.2802C227.205 56.6536 227.096 57.0186 226.891 57.3291C226.685 57.6396 226.394 57.8816 226.052 58.0245C225.711 58.1674 225.336 58.2048 224.973 58.1319C224.611 58.0591 224.278 57.8793 224.017 57.6152C223.756 57.3512 223.578 57.0148 223.506 56.6485C223.434 56.2823 223.471 55.9027 223.612 55.5577C223.753 55.2127 223.993 54.9178 224.3 54.7104C224.607 54.5029 224.968 54.3922 225.338 54.3922C225.833 54.3922 226.308 54.5911 226.658 54.9452C227.009 55.2993 227.205 55.7795 227.205 56.2802Z" fill="#0E293E"/>
<path d="M227.205 101.007C227.205 101.38 227.096 101.745 226.891 102.056C226.685 102.366 226.394 102.608 226.052 102.751C225.711 102.894 225.336 102.931 224.973 102.858C224.611 102.785 224.278 102.606 224.017 102.342C223.756 102.078 223.578 101.741 223.506 101.375C223.434 101.009 223.471 100.629 223.612 100.284C223.753 99.9391 223.993 99.6443 224.3 99.4368C224.607 99.2294 224.968 99.1187 225.338 99.1187C225.833 99.1187 226.308 99.3176 226.658 99.6716C227.009 100.026 227.205 100.506 227.205 101.007Z" fill="#0E293E"/>
</svg>
