<svg width="34" height="107" viewBox="0 0 34 107" fill="none" xmlns="http://www.w3.org/2000/svg">
<g clip-path="url(#clip0)">
<path d="M2.99998 52.58C2.20998 77 19.57 84.06 19.57 84.06C19.57 84.06 19.01 85.82 16.32 87.38C7.80998 92.32 13.09 104 20.32 104C27.22 104 35.49 98.94 27.55 90.18" stroke="white" stroke-width="6" stroke-miterlimit="10"/>
<path d="M3 52.58C4.19 36.47 19.5 30.05 19.5 30.05C19.5 30.05 11.42 29.05 9.31 28.05C5.83 26.57 8.4 25.93 17 19.94C22.51 16.07 25.51 15.37 25.15 9.57997C24.94 7.08997 20.49 0.459972 12.93 3.99997C12.93 3.99997 5.83 9.66997 12.6 12.85" stroke="white" stroke-width="6" stroke-miterlimit="10"/>
</g>
<defs>
<clipPath id="clip0">
<rect width="33.81" height="107" fill="white"/>
</clipPath>
</defs>
</svg>
